<?xml version="1.0" encoding="utf-8"?>
<!-- Generator: Adobe Illustrator 21.1.0, SVG Export Plug-In . SVG Version: 6.00 Build 0)  -->
<svg version="1.1" id="Layer_1" xmlns="http://www.w3.org/2000/svg" xmlns:xlink="http://www.w3.org/1999/xlink" x="0px" y="0px"
	 viewBox="0 0 144.5 28.5" style="enable-background:new 0 0 144.5 28.5;" xml:space="preserve">
<style type="text/css">
	.st0{fill:#5371FF;}
	.st1{fill:#6D6E70;}
	.st2{fill:#2C3C44;}
</style>
<g>
	<g>
		<path class="st0" d="M28.1,25.4c0,0-0.1-0.1-0.1-0.1L15.4,7.2c-0.6-0.8-1.8-0.8-2.4,0l-6.5,9.3c-0.7,1,0,2.3,1.2,2.3
			c0.5,0,0.9-0.2,1.2-0.6l4.1-5.9c0.6-0.8,1.8-0.8,2.4,0l11,15.8h1.7V25.4z M28.1,25.4"/>
		<path class="st0" d="M13,17.6l-0.2,0.3c-0.4,0.5-0.4,1.2,0,1.7l6,8.6h4l-7.3-10.5C14.8,16.8,13.5,16.8,13,17.6L13,17.6z M13,17.6"
			/>
		<path class="st0" d="M13,1.9c0.6-0.8,1.8-0.8,2.4,0l12.7,18.2V0.3H0.2v19.8L13,1.9z M13,1.9"/>
		<path class="st0" d="M11.1,22.5c-0.3-0.4-0.7-0.6-1.2-0.6H3.5c-0.5,0-0.9,0.2-1.2,0.6l-1.9,2.8c0,0-0.1,0.1-0.1,0.1v2.7H15
			L11.1,22.5z M11.1,22.5"/>
	</g>
	<g>
		<path class="st1" d="M46.6,24.9L46.6,24.9l1-1.6h-0.4l-0.8,1.3l-0.8-1.3h-0.4l1,1.5l0,0v1h0.3V24.9z M50.5,25.9
			c0.5,0,0.9-0.3,1.2-0.7c0.1-0.2,0.2-0.4,0.2-0.7c0-0.5-0.3-0.9-0.7-1.2c-0.2-0.1-0.4-0.2-0.7-0.2c-0.5,0-0.9,0.3-1.2,0.7
			c-0.1,0.2-0.2,0.4-0.2,0.7c0,0.5,0.3,0.9,0.7,1.2C50.1,25.9,50.3,25.9,50.5,25.9L50.5,25.9z M50.5,25.6c-0.4,0-0.7-0.2-0.9-0.5
			c-0.1-0.2-0.1-0.3-0.1-0.5c0-0.4,0.2-0.7,0.5-0.9c0.2-0.1,0.3-0.1,0.5-0.1c0.4,0,0.7,0.2,0.9,0.5c0.1,0.2,0.1,0.3,0.1,0.5
			c0,0.4-0.2,0.7-0.5,0.9C50.9,25.6,50.7,25.6,50.5,25.6L50.5,25.6z M55.3,23.3v1.5c0,0.5-0.4,0.8-0.8,0.8c-0.5,0-0.8-0.3-0.8-0.8
			v-1.5h-0.3v1.5c0,0.4,0.2,0.7,0.5,0.9c0.2,0.1,0.3,0.1,0.5,0.1c0.4,0,0.7-0.2,0.9-0.5c0.1-0.2,0.1-0.3,0.1-0.5v-1.5H55.3z
			 M57.4,25.9v-1.1h0.7l0.7,1.1h0.4l-0.7-1.1c0.4-0.1,0.7-0.4,0.7-0.8c0-0.4-0.4-0.8-0.8-0.8h-1.3v2.6H57.4z M58.4,24.5l-1,0v-1h0.9
			c0.3,0,0.5,0.2,0.5,0.5C58.9,24.3,58.7,24.5,58.4,24.5L58.4,24.5z M65.3,24.5H64v0.3h0.9c-0.1,0.3-0.2,0.5-0.5,0.7
			c-0.2,0.1-0.3,0.2-0.5,0.2c-0.4,0-0.7-0.2-0.9-0.5c-0.1-0.2-0.1-0.3-0.1-0.5c0-0.4,0.2-0.7,0.5-0.9c0.2-0.1,0.3-0.1,0.5-0.1
			c0.4,0,0.7,0.2,0.9,0.5l0.3-0.2c-0.2-0.4-0.7-0.6-1.1-0.6c-0.5,0-0.9,0.3-1.2,0.7c-0.1,0.2-0.2,0.4-0.2,0.7c0,0.5,0.3,0.9,0.7,1.2
			c0.2,0.1,0.4,0.2,0.7,0.2c0.4,0,0.8-0.2,1-0.6v0.5h0.3V24.5z M67.1,25.9v-1.1h0.7l0.7,1.1h0.4l-0.7-1.1c0.4-0.1,0.7-0.4,0.7-0.8
			c0-0.4-0.4-0.8-0.8-0.8h-1.3v2.6H67.1z M68.1,24.5l-1,0v-1h0.9c0.3,0,0.5,0.2,0.5,0.5C68.6,24.3,68.4,24.5,68.1,24.5L68.1,24.5z
			 M71.8,25.9c0.5,0,0.9-0.3,1.2-0.7c0.1-0.2,0.2-0.4,0.2-0.7c0-0.5-0.3-0.9-0.7-1.2c-0.2-0.1-0.4-0.2-0.7-0.2
			c-0.5,0-0.9,0.3-1.2,0.7c-0.1,0.2-0.2,0.4-0.2,0.7c0,0.5,0.3,0.9,0.7,1.2C71.3,25.9,71.5,25.9,71.8,25.9L71.8,25.9z M71.8,25.6
			c-0.4,0-0.7-0.2-0.9-0.5c-0.1-0.2-0.1-0.3-0.1-0.5c0-0.4,0.2-0.7,0.5-0.9c0.2-0.1,0.3-0.1,0.5-0.1c0.4,0,0.7,0.2,0.9,0.5
			c0.1,0.2,0.1,0.3,0.1,0.5c0,0.4-0.2,0.7-0.5,0.9C72.1,25.6,72,25.6,71.8,25.6L71.8,25.6z M75.5,25.9l0.7-2.1l0.7,2.1h0.3l0.8-2.6
			h-0.3L77,25.4l-0.7-2.1H76l-0.7,2.1l-0.7-2.1h-0.3l0.8,2.6H75.5z M80.7,25.9v-2.3h0.9v-0.3h-2.2v0.3h0.9v2.3H80.7z M83.5,25.9
			v-1.2H85v1.2h0.3v-2.6H85v1.2h-1.5v-1.2h-0.3v2.6H83.5z M87,25.9c0.1,0,0.2-0.1,0.2-0.2c0-0.1-0.1-0.2-0.2-0.2
			c-0.1,0-0.2,0.1-0.2,0.2C86.8,25.8,86.9,25.9,87,25.9L87,25.9z M92,25.9c0.5,0,0.9-0.3,1.2-0.7c0.1-0.2,0.2-0.4,0.2-0.7
			c0-0.5-0.3-0.9-0.7-1.2c-0.2-0.1-0.4-0.2-0.7-0.2c-0.5,0-0.9,0.3-1.2,0.7c-0.1,0.2-0.2,0.4-0.2,0.7c0,0.5,0.3,0.9,0.7,1.2
			C91.5,25.9,91.8,25.9,92,25.9L92,25.9z M92,25.6c-0.4,0-0.7-0.2-0.9-0.5C91,25,91,24.8,91,24.6c0-0.4,0.2-0.7,0.5-0.9
			c0.2-0.1,0.3-0.1,0.5-0.1c0.4,0,0.7,0.2,0.9,0.5c0.1,0.2,0.1,0.3,0.1,0.5c0,0.4-0.2,0.7-0.5,0.9C92.4,25.6,92.2,25.6,92,25.6
			L92,25.6z M96.7,23.3v1.5c0,0.5-0.4,0.8-0.8,0.8c-0.4,0-0.8-0.3-0.8-0.8v-1.5h-0.3v1.5c0,0.4,0.2,0.7,0.5,0.9
			c0.2,0.1,0.3,0.1,0.5,0.1c0.4,0,0.7-0.2,0.9-0.5C97,25.2,97,25,97,24.8v-1.5H96.7z M98.9,25.9v-1.1h0.7l0.7,1.1h0.4l-0.7-1.1
			c0.4-0.1,0.7-0.4,0.7-0.8c0-0.4-0.4-0.8-0.8-0.8h-1.3v2.6H98.9z M99.8,24.5l-1,0v-1h0.9c0.3,0,0.5,0.2,0.5,0.5
			C100.3,24.3,100.1,24.5,99.8,24.5L99.8,24.5z M104.4,25.1l-0.3,0.1c0.2,0.5,0.5,0.7,1.1,0.7c0.6,0,1-0.3,1-0.8
			c0-0.3-0.2-0.5-0.4-0.6c-0.1,0-0.3-0.1-0.5-0.1c-0.3-0.1-0.5-0.1-0.6-0.2c-0.1-0.1-0.1-0.1-0.1-0.2c0-0.3,0.3-0.4,0.6-0.4
			c0.4,0,0.5,0.1,0.7,0.5l0.3-0.1c-0.2-0.5-0.5-0.7-1-0.7c-0.5,0-0.9,0.3-0.9,0.7c0,0.3,0.2,0.5,0.5,0.6c0.1,0,0.3,0.1,0.5,0.1
			c0.3,0.1,0.5,0.1,0.6,0.2c0.1,0.1,0.1,0.1,0.1,0.2c0,0.3-0.2,0.5-0.6,0.5C104.7,25.7,104.5,25.5,104.4,25.1L104.4,25.1z
			 M108.8,25.9v-2.3h0.9v-0.3h-2.2v0.3h0.9v2.3H108.8z M111.6,25.9v-1.1h0.7l0.7,1.1h0.4l-0.7-1.1c0.4-0.1,0.7-0.4,0.7-0.8
			c0-0.4-0.4-0.8-0.8-0.8h-1.3v2.6H111.6z M112.6,24.5l-1,0v-1h0.9c0.3,0,0.5,0.2,0.5,0.5C113.1,24.3,112.9,24.5,112.6,24.5
			L112.6,24.5z M115.2,25.9l0.3-0.6h1.3l0.3,0.6h0.3l-1.1-2.6H116l-1.1,2.6H115.2z M115.6,25l0.5-1.3l0.5,1.3H115.6z M119.6,25.9
			v-2.3h0.9v-0.3h-2.2v0.3h0.9v2.3H119.6z M122,25.9h1.9v-0.3h-1.5v-0.9h1.3v-0.3h-1.3v-0.9h1.5v-0.3H122V25.9z M128.1,24.5h-1.3
			v0.3h0.9c-0.1,0.3-0.2,0.5-0.5,0.7c-0.2,0.1-0.3,0.2-0.5,0.2c-0.4,0-0.7-0.2-0.9-0.5c-0.1-0.2-0.1-0.3-0.1-0.5
			c0-0.4,0.2-0.7,0.5-0.9c0.2-0.1,0.3-0.1,0.5-0.1c0.4,0,0.7,0.2,0.9,0.5l0.3-0.2c-0.2-0.4-0.7-0.6-1.2-0.6c-0.5,0-0.9,0.3-1.2,0.7
			c-0.1,0.2-0.2,0.4-0.2,0.7c0,0.5,0.3,0.9,0.7,1.2c0.2,0.1,0.4,0.2,0.7,0.2c0.4,0,0.8-0.2,1-0.6v0.5h0.3V24.5z M130.9,24.9
			L130.9,24.9l1-1.6h-0.4l-0.8,1.3l-0.8-1.3h-0.4l1,1.5l0,0v1h0.3V24.9z M130.9,24.9"/>
	</g>
	<g>
		<g>
			<path class="st2" d="M34.8,19.4l0.5-1.3h2.4l0.5,1.3H40l-2.6-6.7h-1.8L33,19.4H34.8z M35.8,16.7l0.7-1.7l0.7,1.7H35.8z"/>
			<rect x="42.6" y="12.8" class="st2" width="1.6" height="6.7"/>
			<polygon class="st2" points="49.1,19.4 49.1,16.3 50.4,19.4 52.2,19.4 53.5,16.2 53.5,19.4 55.1,19.4 55.1,12.8 53.2,12.8 
				51.3,17.3 49.4,12.8 47.5,12.8 47.5,19.4 			"/>
		</g>
		<g>
			<path class="st2" d="M63.8,19.4l0.5-1.3h2.4l0.5,1.3H69l-2.6-6.7h-1.8L62,19.4H63.8z M64.8,16.7l0.7-1.7l0.7,1.7H64.8z"/>
			<polygon class="st2" points="73.9,19.4 73.9,14.1 75.6,14.1 75.6,12.8 70.5,12.8 70.5,14.1 72.3,14.1 72.3,19.4 			"/>
		</g>
		<g>
			<path class="st2" d="M82.6,19.4h3.3c1.5,0,2.4-0.9,2.4-2.2c0-0.8-0.4-1.3-1-1.6c0.2-0.3,0.4-0.6,0.4-1c0-1.1-0.7-1.8-2-1.8h-3.1
				V19.4z M86.2,18h-1.9v-1.5h2c0.5,0,0.8,0.3,0.8,0.8C87,17.8,86.7,18,86.2,18L86.2,18z M85.8,15.4h-1.5v-1.2h1.5
				c0.5,0,0.7,0.2,0.7,0.6C86.5,15.2,86.2,15.4,85.8,15.4L85.8,15.4z"/>
			<path class="st2" d="M92.9,16.5v-3.8h-1.6v3.8c0,1.1,0.6,2.1,1.5,2.6c0.5,0.3,1,0.4,1.5,0.4c1.1,0,2-0.6,2.6-1.5
				c0.3-0.5,0.4-1,0.4-1.5v-3.8h-1.6v3.8c0,0.8-0.6,1.5-1.4,1.5C93.5,18,92.9,17.4,92.9,16.5L92.9,16.5z"/>
			<path class="st2" d="M103,12.7c-1.5,0-2.6,0.8-2.6,2.1c0,1,0.6,1.6,1.8,1.9l1.4,0.3c0.4,0.1,0.7,0.2,0.7,0.5c0,0.3-0.3,0.5-1,0.5
				c-0.5,0-1.1-0.3-1.3-0.8l-1.6,0.6c0.3,1.2,1.4,1.8,2.8,1.8c0.9,0,1.8-0.3,2.3-0.9c0.3-0.3,0.4-0.7,0.4-1.2c0-1-0.6-1.6-1.8-1.9
				l-1.4-0.3c-0.3-0.1-0.6-0.2-0.6-0.4c0-0.3,0.4-0.5,0.9-0.5c0.6,0,1.1,0.2,1.2,0.7l1.5-0.6C105.4,13.2,104.4,12.7,103,12.7
				L103,12.7z"/>
			<rect x="109.2" y="12.8" class="st2" width="1.6" height="6.7"/>
			<polygon class="st2" points="115.6,19.4 115.6,15.3 118.1,19.4 120,19.4 120,12.8 118.4,12.8 118.4,16.9 116,12.8 114.1,12.8 
				114.1,19.4 			"/>
			<polygon class="st2" points="123.3,19.4 128.1,19.4 128.1,18 124.9,18 124.9,16.8 127.5,16.8 127.5,15.4 124.9,15.4 124.9,14.2 
				128.1,14.2 128.1,12.8 123.3,12.8 			"/>
			<path class="st2" d="M133.5,12.7c-1.5,0-2.6,0.8-2.6,2.1c0,1,0.6,1.6,1.8,1.9l1.4,0.3c0.4,0.1,0.7,0.2,0.7,0.5
				c0,0.3-0.3,0.5-1,0.5c-0.5,0-1.1-0.3-1.3-0.8l-1.6,0.6c0.3,1.2,1.4,1.8,2.8,1.8c0.9,0,1.8-0.3,2.3-0.9c0.3-0.3,0.4-0.7,0.4-1.2
				c0-1-0.6-1.6-1.8-1.9l-1.4-0.3c-0.3-0.1-0.6-0.2-0.6-0.4c0-0.3,0.4-0.5,0.9-0.5c0.6,0,1.1,0.2,1.2,0.7l1.5-0.6
				C135.9,13.2,134.9,12.7,133.5,12.7L133.5,12.7z"/>
			<path class="st2" d="M141.5,12.7c-1.5,0-2.6,0.8-2.6,2.1c0,1,0.6,1.6,1.8,1.9l1.4,0.3c0.4,0.1,0.7,0.2,0.7,0.5
				c0,0.3-0.3,0.5-1,0.5c-0.5,0-1.1-0.3-1.3-0.8l-1.6,0.6c0.3,1.2,1.4,1.8,2.8,1.8c0.9,0,1.8-0.3,2.3-0.9c0.3-0.3,0.4-0.7,0.4-1.2
				c0-1-0.6-1.6-1.8-1.9l-1.4-0.3c-0.3-0.1-0.6-0.2-0.6-0.4c0-0.3,0.4-0.5,0.9-0.5c0.6,0,1.1,0.2,1.2,0.7l1.5-0.6
				C143.8,13.2,142.8,12.7,141.5,12.7L141.5,12.7z"/>
			<path class="st2" d="M141.5,12.7"/>
		</g>
	</g>
	<g>
		<path class="st2" d="M45.2,3.3c0.1,0,0.1,0.1,0.1,0.1c0,0.1,0,0.1-0.1,0.1c0,0,0,0.1-0.1,0.1h1.7v0.5h-1c0,0.2,0,0.4-0.1,0.6h1.4
			v0.5h-1.2c0.2,0.2,0.3,0.3,0.4,0.3c0.1,0.1,0.3,0.2,0.6,0.3l-0.5,0.5C46.2,6.2,46,6,45.9,5.9c-0.1-0.1-0.2-0.2-0.3-0.4
			c0,0,0,0.1-0.1,0.1c-0.3,0.4-0.7,0.8-1.3,1l-0.4-0.5c0.6-0.3,1.1-0.6,1.3-0.9c0,0,0-0.1,0.1-0.1h-1.3V4.6h0.4l-0.4-0.2
			c0.4-0.4,0.7-0.8,0.9-1.3L45.2,3.3z M45.3,4.1h-0.5c-0.1,0.2-0.3,0.4-0.4,0.6h0.9C45.2,4.5,45.3,4.3,45.3,4.1z M48.5,6.4V9H48V8.8
			h-2.6v0.3h-0.6V6.4H48.5z M48,7.4V6.9h-2.6v0.5H48z M48,8.3V7.8h-2.6v0.5H48z M49.3,3.7v2.4h-2V3.7H49.3z M48.7,4.3h-0.9v1.3h0.9
			V4.3z"/>
		<path class="st2" d="M56,3.2c0.1,0,0.2,0,0.2,0.1c0,0,0,0.1-0.1,0.2v0.6h2.5v0.6h-0.9c-0.1,0.9-0.3,1.5-0.6,2
			c-0.2,0.3-0.3,0.5-0.5,0.7c0.6,0.4,1.3,0.8,2.2,1.1l-0.5,0.6c-0.9-0.4-1.6-0.8-2.1-1.2c-0.1,0.1-0.2,0.2-0.3,0.3
			c-0.5,0.4-1.3,0.7-2.2,1l-0.7-0.5c1-0.3,1.8-0.5,2.3-0.8c0.1-0.1,0.3-0.2,0.4-0.3C55.3,7.3,55.1,7.1,55,7
			c-0.5-0.5-0.9-1.3-1.1-2.3h-1V4.1h2.5v-1L56,3.2z M55.5,6.7c0.1,0.1,0.2,0.2,0.4,0.3c0.1-0.2,0.3-0.3,0.4-0.5
			c0.3-0.5,0.5-1.1,0.6-1.8h-2.4C54.7,5.5,55,6.2,55.5,6.7z"/>
		<path class="st2" d="M65,3.2c0.1,0,0.2,0,0.2,0.1c0,0,0,0.1-0.1,0.2v0.3h2.3v0.5h-1.1L66,5h1.2v3.4c0,0.3-0.1,0.5-0.4,0.6
			c-0.2,0.1-0.4,0.1-0.6,0.1L66,8.5h-1.7v0.2h-0.5V7H66v1.5l0.5,0c0.1,0,0.2-0.1,0.2-0.3V5.5h-1.1v0.6c0,0.2,0.1,0.2,0.2,0.2h0.2
			c0.1,0,0.1,0,0.1-0.1c0,0,0-0.1,0.1-0.3l0.5,0.2c0,0.3-0.1,0.5-0.2,0.6c-0.1,0.1-0.2,0.1-0.4,0.1h-0.4c-0.4,0-0.6-0.1-0.6-0.4V5.5
			h-0.5c0,0.3-0.1,0.5-0.2,0.6c-0.1,0.2-0.2,0.4-0.4,0.5c-0.1,0.1-0.3,0.3-0.6,0.4L63,6.7v2.4h-0.6V5h1.2c-0.1-0.3-0.1-0.6-0.2-0.8
			h-1.1V3.7h2.2V3.1L65,3.2z M63.5,6.4c0.1-0.1,0.3-0.2,0.3-0.4C63.9,5.8,64,5.7,64,5.5h-1v1.1C63.2,6.5,63.4,6.4,63.5,6.4z M65.4,5
			l0.3-0.8H64c0.1,0.3,0.2,0.6,0.2,0.8H65.4z M65.4,8V7.5h-1.2V8H65.4z"/>
		<path class="st2" d="M73.6,3.1c0.1,0,0.1,0,0.1,0.1c0,0,0,0.1-0.1,0.1v0.8h0.6V3l0.5,0c0.1,0,0.1,0,0.1,0.1c0,0,0,0.1-0.1,0.1v0.8
			h0.4l0.5-1l0.4,0.2c0.1,0,0.1,0.1,0.1,0.1c0,0.1,0,0.1-0.1,0.1l-0.3,0.5h0.9v0.5h-1.3l-0.2,0.6h1.2v0.5h-2.1v0.4h1.9v0.5h-1.9v0.4
			h2.6v0.5h-2.2c0.3,0.2,0.6,0.4,0.9,0.5c0.3,0.1,0.8,0.3,1.5,0.4l-0.6,0.6c-0.5-0.2-0.9-0.4-1.2-0.5c-0.3-0.2-0.6-0.4-0.9-0.7v1.4
			h-0.6V7.8c-0.3,0.3-0.7,0.5-1,0.7c-0.4,0.2-0.8,0.3-1.3,0.5l-0.5-0.5c0.6-0.1,1.1-0.3,1.6-0.5c0.3-0.1,0.5-0.3,0.8-0.5h-2.2V6.9
			h2.6V6.6h-1.9V6.1h1.9V5.7h-2.1V5.2h1.2l-0.2-0.6h-1.4V4.1h1c-0.2-0.2-0.3-0.4-0.4-0.6l0.4-0.4c0.2,0.3,0.5,0.6,0.7,1h0.3V3
			L73.6,3.1z M74.5,5.2l0.2-0.6h-1.6l0.2,0.6H74.5z"/>
		<path class="st2" d="M82.8,3.6c-0.6,0.2-1.2,0.3-1.9,0.4v0.1h2.2v1.3h-2.2c0,0.3,0,0.6,0,0.8c0,0,0.1-0.1,0.1-0.1
			c0.2-0.2,0.3-0.4,0.4-0.6l0.4,0.1c0,0,0.1,0,0.1,0.1c0,0,0,0.1-0.1,0.1c0,0.1-0.1,0.1-0.1,0.1h0.3l0.3-0.4l0.4,0.1
			c0.1,0,0.1,0,0.1,0.1c0,0,0,0.1-0.1,0.1l-0.1,0.1h0.6v0.4h-0.7v0.4h0.6v0.4h-0.6v0.5h0.6v0.4h-0.6v0.4h0.7v0.3
			c0.3-0.2,0.5-0.4,0.8-0.6l0.4,0.2c0,0,0.1,0.1,0.1,0.1c0,0,0,0.1-0.1,0.1c-0.2,0.2-0.4,0.4-0.7,0.6l-0.4-0.3v0.1h-1.8V9H81V6.6
			l-0.1,0c0,0.5-0.1,1-0.2,1.4c-0.1,0.3-0.2,0.6-0.3,0.9l-0.5-0.3C80,8.3,80.1,8.1,80.2,8c0.1-0.3,0.1-0.6,0.2-1
			c0.1-0.5,0.1-1.2,0.1-2.2V3.4l0.3,0.1c0.3,0,0.7-0.1,0.9-0.1c0.3-0.1,0.7-0.2,1.1-0.3l0.4,0.4c0,0,0,0.1,0,0.1c0,0,0,0-0.1,0
			l-0.1,0C82.9,3.5,82.9,3.5,82.8,3.6z M82.7,4.9V4.5h-1.7v0.4H82.7z M82.1,6.8V6.3h-0.6v0.4H82.1z M82.1,7.6V7.2h-0.6v0.5H82.1z
			 M82.1,8.4V8.1h-0.6v0.4H82.1z M86.1,3.4v0.5H85l-0.2,0.6h1.1V8h-2.4V4.5h0.8l0.2-0.6h-1.1V3.4H86.1z M85.3,5.5V5H84v0.5H85.3z
			 M85.3,6.5V6H84v0.5H85.3z M85.3,7H84v0.5h1.3V7z M86.1,8.7l-0.4,0.5c-0.3-0.2-0.6-0.4-0.8-0.7l0.3-0.3
			C85.4,8.3,85.7,8.5,86.1,8.7z"/>
		<path class="st2" d="M91.8,3.2v2.4h-1.8v3.4h-0.6V3.2h0.3H91.8z M91.3,4.2V3.8h-1.2v0.5H91.3z M91.3,5.1V4.7h-1.2v0.5H91.3z
			 M93.4,6.2v2h-1.9v0.3h-0.6V6.2H93.4z M92.9,7.7V6.8h-1.4v0.9H92.9z M94.9,3.2v5.3c0,0.3-0.1,0.4-0.4,0.5
			c-0.2,0.1-0.4,0.1-0.6,0.1l-0.2-0.5l0.5,0c0.1,0,0.2-0.1,0.2-0.2V5.7h-1.8V3.2h0.3H94.9z M94.4,3.8h-1.3v0.5h1.3V3.8z M94.4,4.7
			h-1.3v0.5h1.3V4.7z"/>
		<path class="st2" d="M100.4,4c0.1-0.3,0.2-0.6,0.4-0.9l0.5,0.2c0.1,0,0.1,0.1,0.1,0.1c0,0,0,0.1-0.1,0.1c-0.1,0.2-0.1,0.3-0.2,0.5
			h3.1v0.5h-3.4c-0.1,0.3-0.3,0.5-0.4,0.7h3v3.2c0,0.3-0.1,0.5-0.4,0.5c-0.2,0.1-0.5,0.1-0.7,0.1L102,8.5l0.5,0
			c0.2,0,0.2-0.1,0.2-0.2V7.9h-2.5V9h-0.6V6c-0.3,0.3-0.7,0.6-1.1,0.8l-0.4-0.6c0.5-0.2,1-0.5,1.5-1.1c0.2-0.2,0.3-0.4,0.4-0.6h-1.8
			V4H100.4z M102.8,6.3V5.7h-2.5v0.6H102.8z M102.8,7.4V6.8h-2.5v0.6H102.8z"/>
		<path class="st2" d="M109.9,3.6l-0.8,1.7c0.4,0.5,0.6,0.9,0.6,1.3c0,0.4-0.1,0.8-0.3,1c-0.2,0.3-0.5,0.4-0.9,0.4l-0.2-0.6
			c0.4-0.1,0.6-0.2,0.7-0.3c0.1-0.1,0.2-0.3,0.2-0.6c0-0.3-0.2-0.7-0.7-1.2l0.6-1.6h-0.9v5.3h-0.6V3.3h1.7c0-0.1,0.1-0.1,0.1-0.1
			L109.9,3.6z M113,3.3V6h-1c0.1,0.4,0.2,0.7,0.3,1c0.3-0.2,0.6-0.5,0.8-0.7l0.4,0.4c0,0,0,0.1,0,0.1c0,0-0.1,0.1-0.2,0.1
			c-0.3,0.2-0.5,0.4-0.8,0.6c0.2,0.4,0.6,0.8,1.1,1.2L113,9c-0.3-0.3-0.6-0.7-0.8-0.9c-0.2-0.3-0.4-0.7-0.5-1
			c-0.1-0.3-0.2-0.6-0.3-1.1h-0.7v2.2c0.4-0.1,0.7-0.2,1.1-0.3v0.5c-0.4,0.2-1,0.4-1.9,0.6c0,0.1-0.1,0.1-0.1,0.1c0,0-0.1,0-0.1-0.1
			l-0.2-0.6c0.2,0,0.4-0.1,0.6-0.1v-5H113z M112.4,4.4V3.8h-1.8v0.6H112.4z M112.4,5.5V4.9h-1.8v0.6H112.4z"/>
		<path class="st2" d="M118.7,4.2c0.1,0,0.1,0.1,0.1,0.1c0,0.1-0.1,0.1-0.2,0.2c-0.2,0.5-0.3,0.9-0.5,1.1c-0.2,0.3-0.5,0.7-1,1
			l-0.5-0.4c0.4-0.3,0.8-0.6,1-1c0.2-0.2,0.3-0.6,0.5-1.1L118.7,4.2z M119.6,5.6c0.1,0,0.1,0.1,0.1,0.1c0,0-0.1,0.1-0.2,0.2
			c-0.3,0.7-0.6,1.5-1,2.3c0.8,0,1.6-0.1,2.3-0.2c-0.2-0.3-0.5-0.7-0.7-1l0.4-0.4c0.5,0.6,1,1.3,1.5,2.1l-0.6,0.4
			c-0.1-0.2-0.2-0.4-0.4-0.6l-3.7,0.4C117.4,9,117.3,9,117.3,9c-0.1,0-0.1,0-0.1-0.1l-0.2-0.7c0.3,0,0.7,0,1,0
			c0.2-0.4,0.4-0.7,0.5-1.1c0.2-0.6,0.4-1.2,0.6-1.7L119.6,5.6z M120.8,3.4c0.1,0.7,0.3,1.3,0.6,1.7c0.2,0.3,0.6,0.7,1.2,1.1
			L122,6.6c-0.6-0.5-1-1-1.3-1.4c-0.2-0.3-0.4-0.8-0.5-1.3h-1.6V3.4H120.8z"/>
		<path class="st2" d="M131.2,3.4v5c0,0.3-0.2,0.5-0.5,0.6c-0.3,0.1-0.6,0.1-0.8,0.1l-0.2-0.6l0.7,0c0.2,0,0.3-0.1,0.3-0.3V4h-4.5
			V3.4H131.2z M129.9,4.6v0.5h-3.4V4.6H129.9z M129.5,5.8v2.1h-2.3v0.5h-0.6V5.8H129.5z M129,7.4v-1h-1.7v1H129z"/>
	</g>
</g>
</svg>
